<svg width="1024" height="1024" viewBox="0 0 1024 1024" xmlns="http://www.w3.org/2000/svg">
  <defs>
    <linearGradient id="bgGradient" x1="0" y1="0" x2="1" y2="1">
      <stop offset="0%" stop-color="#0B1120"/>
      <stop offset="100%" stop-color="#111827"/>
    </linearGradient>
    <linearGradient id="accentGradient" x1="0" y1="1" x2="1" y2="0">
      <stop offset="0%" stop-color="#22C55E"/>
      <stop offset="100%" stop-color="#38BDF8"/>
    </linearGradient>
  </defs>
  <rect x="64" y="64" width="896" height="896" rx="200" fill="url(#bgGradient)"/>
  <rect x="128" y="128" width="768" height="768" rx="176" fill="none" stroke="#0F172A" stroke-width="24"/>

  <!-- Grid lines -->
  <g stroke="#1F2937" stroke-width="8">
    <line x1="220" y1="804" x2="220" y2="260"/>
    <line x1="384" y1="804" x2="384" y2="260"/>
    <line x1="548" y1="804" x2="548" y2="260"/>
    <line x1="712" y1="804" x2="712" y2="260"/>
    <line x1="176" y1="332" x2="848" y2="332"/>
    <line x1="176" y1="468" x2="848" y2="468"/>
    <line x1="176" y1="604" x2="848" y2="604"/>
    <line x1="176" y1="740" x2="848" y2="740"/>
  </g>

  <!-- ETF rising line -->
  <path
    d="M196 708 L324 612 L448 644 L592 476 L732 380 L828 332"
    fill="none"
    stroke="url(#accentGradient)"
    stroke-width="32"
    stroke-linecap="round"
    stroke-linejoin="round"
  />

  <!-- Data points -->
  <g fill="#22C55E">
    <circle cx="196" cy="708" r="14"/>
    <circle cx="324" cy="612" r="14"/>
    <circle cx="448" cy="644" r="14"/>
    <circle cx="592" cy="476" r="14"/>
    <circle cx="732" cy="380" r="14"/>
    <circle cx="828" cy="332" r="14"/>
  </g>

  <!-- Stylized ETF label -->
  <g transform="translate(260 260)">
    <rect x="0" y="-60" width="504" height="120" rx="60" fill="#020617" fill-opacity="0.7"/>
    <text x="252" y="16" text-anchor="middle" font-family="system-ui, -apple-system, BlinkMacSystemFont, 'SF Pro Text', sans-serif" font-weight="700" font-size="72" fill="#E5E7EB">
      ETF
    </text>
  </g>
</svg>

